<svg width="20" height="20" viewBox="0 0 20 20" fill="none" xmlns="http://www.w3.org/2000/svg">
<path fill-rule="evenodd" clip-rule="evenodd" d="M10.0003 1.04163C7.8142 1.04163 6.04199 2.81383 6.04199 4.99996C6.04199 7.18609 7.8142 8.95829 10.0003 8.95829C12.1865 8.95829 13.9587 7.18609 13.9587 4.99996C13.9587 2.81383 12.1865 1.04163 10.0003 1.04163ZM7.29199 4.99996C7.29199 3.50419 8.50455 2.29163 10.0003 2.29163C11.4961 2.29163 12.7087 3.50419 12.7087 4.99996C12.7087 6.49573 11.4961 7.70829 10.0003 7.70829C8.50455 7.70829 7.29199 6.49573 7.29199 4.99996Z" fill="black"/>
<path fill-rule="evenodd" clip-rule="evenodd" d="M7.50033 10.2083C5.3142 10.2083 3.54199 11.9805 3.54199 14.1666C3.54199 16.3528 5.3142 18.125 7.50033 18.125H12.5003C14.6865 18.125 16.4587 16.3528 16.4587 14.1666C16.4587 11.9805 14.6865 10.2083 12.5003 10.2083H7.50033ZM4.79199 14.1666C4.79199 12.6709 6.00455 11.4583 7.50033 11.4583H12.5003C13.9961 11.4583 15.2087 12.6709 15.2087 14.1666C15.2087 15.6624 13.9961 16.875 12.5003 16.875H7.50033C6.00455 16.875 4.79199 15.6624 4.79199 14.1666Z" fill="black"/>
</svg>
