<svg width="114" height="20" viewBox="0 0 114 20" fill="none" xmlns="http://www.w3.org/2000/svg">
<path d="M0 0.515464H2.59021V8.33763H12.4356V0.515464H15.0258V19.4459H12.4356V10.5928H2.59021V19.4459H0V0.515464Z" fill="black"/>
<path d="M28.7242 11.6881L25.8505 3.32474L22.7964 11.6881H28.7242ZM24.5103 0.515464H27.4098L34.2784 19.4459H31.4691L29.549 13.7758H22.0619L20.0129 19.4459H17.384L24.5103 0.515464Z" fill="black"/>
<path d="M36.5464 0.515464H40.2191L45.6572 16.5206L51.0567 0.515464H54.6907V19.4459H52.2552V8.2732C52.2552 7.8866 52.2637 7.24656 52.2809 6.35309C52.2981 5.45962 52.3067 4.50172 52.3067 3.47938L46.9072 19.4459H44.3686L38.9304 3.47938V4.05928C38.9304 4.5232 38.939 5.23196 38.9562 6.18557C38.982 7.13058 38.9948 7.82646 38.9948 8.2732V19.4459H36.5464V0.515464Z" fill="black"/>
<path d="M67.3969 9.18814C68.5997 9.18814 69.549 8.94759 70.2449 8.46649C70.9493 7.98539 71.3016 7.1177 71.3016 5.8634C71.3016 4.5146 70.8119 3.59536 69.8325 3.10567C69.3084 2.84794 68.6083 2.71907 67.732 2.71907H61.4691V9.18814H67.3969ZM58.9046 0.515464H67.6675C69.1108 0.515464 70.3007 0.725945 71.2371 1.14691C73.0155 1.95447 73.9046 3.44502 73.9046 5.61856C73.9046 6.75258 73.6684 7.68041 73.1959 8.40206C72.732 9.12371 72.079 9.70361 71.2371 10.1418C71.976 10.4424 72.5301 10.8376 72.8995 11.3273C73.2775 11.817 73.488 12.6117 73.5309 13.7113L73.6211 16.25C73.6469 16.9716 73.707 17.5086 73.8016 17.8608C73.9562 18.4622 74.2311 18.8488 74.6263 19.0206V19.4459H71.482C71.396 19.2826 71.3273 19.0722 71.2758 18.8144C71.2242 18.5567 71.1813 18.0584 71.1469 17.3196L70.9923 14.1624C70.9321 12.9253 70.4725 12.0962 69.6134 11.6753C69.1237 11.4433 68.3548 11.3273 67.3067 11.3273H61.4691V19.4459H58.9046V0.515464Z" fill="black"/>
<path d="M85.8376 0C89.1796 0 91.6538 1.07388 93.2603 3.22165C94.5146 4.89691 95.1418 7.04038 95.1418 9.65206C95.1418 12.4785 94.4244 14.8282 92.9897 16.701C91.3058 18.9003 88.9046 20 85.7861 20C82.8737 20 80.5842 19.0378 78.9175 17.1134C77.4313 15.2577 76.6881 12.9124 76.6881 10.0773C76.6881 7.51718 77.3239 5.32646 78.5954 3.50515C80.2277 1.16838 82.6418 0 85.8376 0ZM86.0954 17.7062C88.3548 17.7062 89.9871 16.8986 90.9923 15.2835C92.006 13.6598 92.5129 11.7955 92.5129 9.69072C92.5129 7.46564 91.9287 5.6744 90.7603 4.31701C89.6005 2.95962 88.0112 2.28093 85.9923 2.28093C84.0335 2.28093 82.4356 2.95533 81.1985 4.30412C79.9613 5.64433 79.3428 7.62457 79.3428 10.2448C79.3428 12.3411 79.8711 14.1108 80.9278 15.5541C81.9931 16.9888 83.7156 17.7062 86.0954 17.7062Z" fill="black"/>
<path d="M98.2732 0.515464H100.863V8.33763H110.709V0.515464H113.299V19.4459H110.709V10.5928H100.863V19.4459H98.2732V0.515464Z" fill="black"/>
</svg>
