<svg width="40" height="40" viewBox="0 0 40 40" fill="none" xmlns="http://www.w3.org/2000/svg">
<g clip-path="url(#clip0_273_1267)">
<rect width="40" height="40" rx="20" fill="#F9F9FB"/>
<path d="M20.001 11.1752C19.3858 11.1752 18.8871 11.6739 18.8871 12.289V27.7107C18.8871 28.3259 19.3858 28.8246 20.001 28.8246C20.6161 28.8246 21.1148 28.3259 21.1148 27.7107V12.2891C21.1148 11.6739 20.6161 11.1752 20.001 11.1752Z" fill="#6F6C90" stroke="#6F6C90" stroke-width="0.3" stroke-linecap="round"/>
<path d="M12.29 18.8861C11.6749 18.8861 11.1762 19.3848 11.1762 20C11.1762 20.6152 11.6749 21.1138 12.29 21.1138H27.7117C28.3269 21.1138 28.8256 20.6152 28.8256 20C28.8256 19.3848 28.3269 18.8861 27.7117 18.8861H12.29Z" fill="#6F6C90" stroke="#6F6C90" stroke-width="0.3" stroke-linecap="round"/>
</g>
<defs>
<clipPath id="clip0_273_1267">
<rect width="40" height="40" fill="white"/>
</clipPath>
</defs>
</svg>
