<svg width="210" height="24" viewBox="0 0 210 24" fill="none" xmlns="http://www.w3.org/2000/svg">
<path d="M15.9899 17.8322C15.3951 17.1466 14.6432 16.6113 13.7967 16.2703C12.9503 15.9292 12.0338 15.7926 11.1231 15.8716H4.54377V20.8942H0V3.10794H16.0142C19.0681 3.10794 20.9802 3.69624 22.2462 4.84748C23.3377 6.14969 23.9349 7.78721 23.9349 9.47768C23.9349 11.1682 23.3377 12.8057 22.2462 14.1079C21.2074 14.9963 19.9148 15.5442 18.5471 15.6759C19.6868 16.1419 20.7178 16.8339 21.5763 17.7088L25.1017 20.8943H19.4158L15.9899 17.8322ZM15.5673 12.3443C17.2308 12.3443 18.1251 12.1486 18.6712 11.5843C19.1552 10.9915 19.3865 10.236 19.3165 9.47768C19.3871 8.72669 19.1552 7.97846 18.6712 7.39505C18.1251 6.83239 17.2308 6.6352 15.5673 6.6352H4.54377V12.344L15.5673 12.3443Z" fill="#06048c"/>
<path d="M49.9387 20.8943H28.7354V3.10794H49.864V6.63478H33.2791V10.09H44.4517V13.4711H33.2791V17.367H49.9387V20.8943Z" fill="#06048c"/>
<path d="M72.5904 17.6606H58.8857L56.7253 20.8943H51.6848L63.9255 3.10794H67.6251L79.9397 20.8943H74.8002L72.5904 17.6606ZM61.2691 14.1079H70.1824L65.6881 7.51704L61.2691 14.1079Z" fill="#06048c"/>
<path d="M102.941 20.8943H82.4824V3.10794H87.0262V17.3671H102.941V20.8943Z" fill="#06048c"/>
<path d="M127.105 6.56111H111.96C111.046 6.43895 110.117 6.62951 109.328 7.10111C109.199 7.22899 109.1 7.38247 109.035 7.55138C108.971 7.72029 108.944 7.90075 108.956 8.08081C108.956 9.11004 109.8 9.47728 111.364 9.59929L121.271 10.3591C124.449 10.6044 126.286 11.0211 127.478 12.1964C127.911 12.6449 128.247 13.1763 128.465 13.7578C128.683 14.3392 128.778 14.9586 128.744 15.5776C128.778 16.2289 128.677 16.8802 128.446 17.4912C128.216 18.1023 127.861 18.6602 127.403 19.1305C126.137 20.3792 124.175 20.8939 120.873 20.8939H105.703V17.4391H121.494C123.505 17.4391 124.349 16.9004 124.349 15.7733C124.349 14.7695 123.753 14.3769 121.942 14.2308L112.755 13.5447C110.123 13.3476 107.74 13.0046 106.2 11.6818C105.697 11.2407 105.296 10.6969 105.026 10.088C104.756 9.47909 104.623 8.81952 104.636 8.15491C104.618 7.51514 104.737 6.87875 104.985 6.2875C105.233 5.69623 105.605 5.16345 106.076 4.72412C107.342 3.57302 109.453 3.10794 112.283 3.10794H127.105V6.56111Z" fill="#06048c"/>
<path d="M147.499 2.81265C152.489 2.81265 155.791 3.54849 157.753 5.53327C159.155 7.40525 159.912 9.6723 159.912 12.0008C159.912 14.3293 159.155 16.5963 157.753 18.4683C155.791 20.4531 152.489 21.1876 147.449 21.1876H143.899C138.907 21.1876 135.606 20.4531 133.644 18.4683C132.241 16.5967 131.484 14.3295 131.484 12.0008C131.484 9.67207 132.241 7.4049 133.644 5.53327C135.606 3.54849 138.907 2.81265 143.899 2.81265H147.499ZM147.076 17.293C150.453 17.293 152.389 17.072 153.606 16.1404C154.599 14.9838 155.145 13.5165 155.145 11.9999C155.145 10.4833 154.599 9.01596 153.606 7.85948C152.389 6.92933 150.452 6.70824 147.051 6.70824H144.345C140.944 6.70824 139.007 6.92933 137.79 7.85948C136.797 9.01558 136.251 10.483 136.251 11.9999C136.251 13.5167 136.797 14.9842 137.79 16.1404C139.007 17.0717 140.944 17.293 144.32 17.293H147.076Z" fill="#06048c"/>
<path d="M168.192 20.8943H163.648V3.10794H184.528V6.63478H168.192V10.09H179.116V13.4711H168.192V20.8943Z" fill="#06048c"/>
<path d="M185.675 3.10794H209.487V6.63478H199.853V20.8939H195.309V6.6352H185.675V3.10794Z" fill="#06048c"/>
</svg>
