<svg width="45" height="44" viewBox="0 0 45 44" fill="none" xmlns="http://www.w3.org/2000/svg">
<rect x="0.666992" width="44" height="44" rx="16" fill="#26252B"/>
<path d="M15.916 32V29.139L24.3084 21.6594C24.9623 21.0781 25.4165 20.5286 25.6708 20.0109C25.9251 19.4932 26.0523 18.9936 26.0523 18.5123C26.0523 17.8583 25.9115 17.277 25.6299 16.7684C25.3484 16.2507 24.9578 15.842 24.4583 15.5422C23.9678 15.2425 23.4001 15.0926 22.7553 15.0926C22.0741 15.0926 21.4701 15.2516 20.9433 15.5695C20.4256 15.8783 20.0214 16.2916 19.7307 16.8093C19.4401 17.327 19.3038 17.8856 19.322 18.485H15.9433C15.9433 17.1771 16.2339 16.0372 16.8152 15.0654C17.4056 14.0936 18.2139 13.3397 19.2403 12.8038C20.2757 12.2679 21.4701 12 22.8234 12C24.0768 12 25.203 12.2816 26.2021 12.8447C27.2012 13.3987 27.9869 14.1708 28.5591 15.1608C29.1313 16.1417 29.4174 17.2725 29.4174 18.5531C29.4174 19.4886 29.2902 20.2743 29.0359 20.9101C28.7816 21.5459 28.4001 22.1317 27.8915 22.6676C27.3919 23.2035 26.7698 23.7984 26.025 24.4523L20.0713 29.7248L19.7716 28.9074H29.4174V32H15.916Z" fill="url(#paint0_linear_273_1059)"/>
<defs>
<linearGradient id="paint0_linear_273_1059" x1="15.916" y1="23.3119" x2="29.4176" y2="23.2919" gradientUnits="userSpaceOnUse">
<stop stop-color="#97E49A"/>
<stop offset="1" stop-color="#BEEF69"/>
</linearGradient>
</defs>
</svg>
