<svg width="44" height="44" viewBox="0 0 44 44" fill="none" xmlns="http://www.w3.org/2000/svg">
<rect width="44" height="44" rx="16" fill="#26252B"/>
<path d="M21.8704 32C20.8889 32 19.9618 31.8091 19.0893 31.4274C18.2167 31.0457 17.4578 30.5049 16.8125 29.805C16.1763 29.1052 15.7173 28.2781 15.4355 27.3238L18.6121 26.4649C18.8393 27.2465 19.2529 27.8509 19.8527 28.2781C20.4617 28.6962 21.1297 28.9007 21.8568 28.8916C22.5021 28.8916 23.0793 28.7416 23.5882 28.4417C24.0972 28.1418 24.4971 27.7373 24.788 27.2284C25.0788 26.7103 25.2242 26.1332 25.2242 25.4969C25.2242 24.5244 24.9107 23.711 24.2835 23.0566C23.6564 22.4022 22.8475 22.075 21.8568 22.075C21.5569 22.075 21.2615 22.1159 20.9707 22.1977C20.6889 22.2795 20.4162 22.3931 20.1527 22.5385L18.653 19.9482L25.2515 14.304L25.5378 15.0948H16.199V12H28.2372V15.1084L22.9338 20.2072L22.9066 19.2393C24.0972 19.3211 25.1106 19.6528 25.9468 20.2345C26.7921 20.8162 27.4374 21.566 27.8827 22.484C28.3372 23.402 28.5644 24.4063 28.5644 25.4969C28.5644 26.733 28.2599 27.8419 27.651 28.8234C27.0511 29.805 26.2422 30.5821 25.2242 31.1547C24.2154 31.7182 23.0974 32 21.8704 32Z" fill="url(#paint0_linear_273_1072)"/>
<defs>
<linearGradient id="paint0_linear_273_1072" x1="15.4355" y1="23.3119" x2="28.5646" y2="23.293" gradientUnits="userSpaceOnUse">
<stop stop-color="#97E49A"/>
<stop offset="1" stop-color="#BEEF69"/>
</linearGradient>
</defs>
</svg>
